<svg xmlns="http://www.w3.org/2000/svg" width="24.172" height="18.776" viewBox="0 0 24.172 18.776"><g id="friend" transform="translate(0 -57.142)"><g id="Group_29" data-name="Group 29" transform="translate(2.921 57.142)"><g id="Group_28" data-name="Group 28"><path id="Path_30" fill="#9c9c9c" d="M66.285,57.142A4.686,4.686,0,1,0,70.7,61.82,4.556,4.556,0,0,0,66.285,57.142Z" data-name="Path 30" transform="translate(-61.873 -57.142)"/></g></g><g id="Group_31" data-name="Group 31" transform="translate(13.58 57.811)"><g id="Group_30" data-name="Group 30"><path id="Path_31" fill="#9c9c9c" d="M291.421,71.321h-.03a3.66,3.66,0,0,0-2.685,1.214,4.178,4.178,0,0,0,.046,5.634,3.661,3.661,0,0,0,2.675,1.17h.03a3.66,3.66,0,0,0,2.685-1.214,4.107,4.107,0,0,0,1.069-2.826A3.909,3.909,0,0,0,291.421,71.321Z" data-name="Path 31" transform="translate(-287.637 -71.321)"/></g></g><g id="Group_33" data-name="Group 33" transform="translate(12.745 66.594)"><g id="Group_32" data-name="Group 32"><path id="Path_32" fill="#9c9c9c" d="M274.765,257.358H274.4a6.6,6.6,0,0,0-4.439,1.712,8.518,8.518,0,0,1,3.326,6.32h8.1v-1.41A6.629,6.629,0,0,0,274.765,257.358Z" data-name="Path 32" transform="translate(-269.96 -257.358)"/></g></g><g id="Group_35" data-name="Group 35" transform="translate(0 67.962)"><g id="Group_34" data-name="Group 34"><path id="Path_33" fill="#9c9c9c" d="M14.652,292.982a7.111,7.111,0,0,0-7.1-6.664H7.113A7.113,7.113,0,0,0,0,293.431v.844H14.666v-.844Q14.666,293.2,14.652,292.982Z" data-name="Path 33" transform="translate(0 -286.318)"/></g></g></g></svg>