<svg id="image" xmlns="http://www.w3.org/2000/svg" width="23.782" height="19.026" viewBox="0 0 23.782 19.026">
  <path id="Path_13" data-name="Path 13" d="M151.7,69.249a2.378,2.378,0,1,0-2.378-2.378A2.381,2.381,0,0,0,151.7,69.249Zm0,0" transform="translate(-145.753 -60.925)" fill="#0db14b"/>
  <path id="Path_14" data-name="Path 14" d="M106.129.492H88.293A2.977,2.977,0,0,0,85.32,3.465v13.08a2.977,2.977,0,0,0,2.973,2.973h17.837a2.977,2.977,0,0,0,2.973-2.973V3.465A2.977,2.977,0,0,0,106.129.492ZM88.293,2.87h17.837a.6.6,0,0,1,.595.595v8.442l-3.756-4.383a2.13,2.13,0,0,0-1.595-.731,2.078,2.078,0,0,0-1.589.75l-4.417,5.3-1.439-1.435a2.087,2.087,0,0,0-2.949,0L87.7,14.689V3.465A.6.6,0,0,1,88.293,2.87Zm0,0" transform="translate(-85.32 -0.492)" fill="#0db14b"/>
</svg>
