<svg xmlns="http://www.w3.org/2000/svg" width="15.094" height="13.429" viewBox="0 0 15.094 13.429">
  <path id="heart" d="M13.9,1.314A4.059,4.059,0,0,0,10.878,0,3.8,3.8,0,0,0,8.506.819a4.852,4.852,0,0,0-.959,1,4.85,4.85,0,0,0-.959-1A3.8,3.8,0,0,0,4.217,0,4.059,4.059,0,0,0,1.2,1.314,4.718,4.718,0,0,0,0,4.536,5.618,5.618,0,0,0,1.5,8.214a31.923,31.923,0,0,0,3.748,3.517c.519.443,1.108.944,1.719,1.479a.886.886,0,0,0,1.167,0c.611-.534,1.2-1.036,1.72-1.479A31.905,31.905,0,0,0,13.6,8.214a5.618,5.618,0,0,0,1.5-3.678,4.718,4.718,0,0,0-1.2-3.222Zm0,0" transform="translate(0)" fill="#09a2ab"/>
</svg>
