<svg xmlns="http://www.w3.org/2000/svg" width="157.755" height="18.776" viewBox="0 0 157.755 18.776">
  <g id="news" transform="translate(-5 0.776)">
    <g id="Group_36" data-name="Group 36" transform="translate(5)">
      <path id="Path_34" data-name="Path 34" d="M16.768,4.347H13.663V.621A.621.621,0,0,0,13.042,0H.621A.621.621,0,0,0,0,.621V14.9a2.484,2.484,0,0,0,2.484,2.484H14.9A2.484,2.484,0,0,0,17.389,14.9V4.968A.621.621,0,0,0,16.768,4.347ZM4.968,3.105H8.694a.621.621,0,0,1,0,1.242H4.968a.621.621,0,0,1,0-1.242Zm5.589,11.8H3.105a.621.621,0,1,1,0-1.242h7.452a.621.621,0,1,1,0,1.242Zm0-2.484H3.105a.621.621,0,1,1,0-1.242h7.452a.621.621,0,1,1,0,1.242Zm0-2.484H3.105a.621.621,0,0,1,0-1.242h7.452a.621.621,0,0,1,0,1.242Zm0-2.484H3.105a.621.621,0,0,1,0-1.242h7.452a.621.621,0,0,1,0,1.242ZM16.147,14.9a1.242,1.242,0,0,1-2.484,0V5.589h2.484V14.9Z" fill="#9c9c9c"/>
    </g>
    <g id="home-run" transform="translate(143 -8.278)">
      <g id="Group_23" data-name="Group 23" transform="translate(0 7.501)">
        <g id="Group_22" data-name="Group 22">
          <path id="Path_24" data-name="Path 24" d="M19.423,15.843,10.56,7.767a1.008,1.008,0,0,0-1.365,0L.332,15.843a1.013,1.013,0,0,0,.682,1.762H2.43V25.7a.581.581,0,0,0,.581.581H7.869A.581.581,0,0,0,8.45,25.7V20.784H11.3V25.7a.581.581,0,0,0,.581.581h4.858a.581.581,0,0,0,.581-.581V17.605h1.416a1.013,1.013,0,0,0,.682-1.762Z" transform="translate(0 -7.501)" fill="#9c9c9c"/>
        </g>
      </g>
      <g id="Group_25" data-name="Group 25" transform="translate(13.272 8.661)">
        <g id="Group_24" data-name="Group 24" transform="translate(0 0)">
          <path id="Path_25" data-name="Path 25" d="M207.465,25.288h-3.9l4.482,4.076V25.869A.581.581,0,0,0,207.465,25.288Z" transform="translate(-203.563 -25.288)" fill="#9c9c9c"/>
        </g>
      </g>
    </g>
  </g>
</svg>
