<svg xmlns="http://www.w3.org/2000/svg" id="news" width="17.389" height="17.389" viewBox="0 0 17.389 17.389"><path id="Path_34" fill="#9c9c9c" d="M16.768,4.347H13.663V.621A.621.621,0,0,0,13.042,0H.621A.621.621,0,0,0,0,.621V14.9a2.484,2.484,0,0,0,2.484,2.484H14.9A2.484,2.484,0,0,0,17.389,14.9V4.968A.621.621,0,0,0,16.768,4.347ZM4.968,3.105H8.694a.621.621,0,0,1,0,1.242H4.968a.621.621,0,0,1,0-1.242Zm5.589,11.8H3.105a.621.621,0,1,1,0-1.242h7.452a.621.621,0,1,1,0,1.242Zm0-2.484H3.105a.621.621,0,1,1,0-1.242h7.452a.621.621,0,1,1,0,1.242Zm0-2.484H3.105a.621.621,0,0,1,0-1.242h7.452a.621.621,0,0,1,0,1.242Zm0-2.484H3.105a.621.621,0,0,1,0-1.242h7.452a.621.621,0,0,1,0,1.242ZM16.147,14.9a1.242,1.242,0,0,1-2.484,0V5.589h2.484V14.9Z" data-name="Path 34"/></svg>