<svg id="power" xmlns="http://www.w3.org/2000/svg" width="45.113" height="45.113" viewBox="0 0 45.113 45.113">
  <g id="Group_11" data-name="Group 11" transform="translate(13.305 8.018)">
    <g id="Group_10" data-name="Group 10">
      <path id="Path_18" data-name="Path 18" d="M169.467,105.234a1.32,1.32,0,0,0-.869-.95l-6.484-2.162,4.605-9.21a1.322,1.322,0,0,0-2.117-1.526L151.386,104.6a1.321,1.321,0,0,0,.516,2.188l6.484,2.162-4.605,9.21a1.322,1.322,0,0,0,2.117,1.526l13.217-13.217A1.323,1.323,0,0,0,169.467,105.234Z" transform="translate(-150.998 -90.999)" fill="#27b58e"/>
    </g>
  </g>
  <g id="Group_13" data-name="Group 13" transform="translate(2.643)">
    <g id="Group_12" data-name="Group 12">
      <path id="Path_19" data-name="Path 19" d="M49.913,0a22.718,22.718,0,0,0-17.27,8.153V6.7A1.322,1.322,0,0,0,30,6.7v5.615c0,1.261,1.629,1.442,1.322,1.322l.081,0L36.69,13.3a1.322,1.322,0,1,0-.163-2.638l-2.678.167A19.893,19.893,0,0,1,69.827,22.557a1.322,1.322,0,1,0,2.643,0A22.645,22.645,0,0,0,49.913,0Z" transform="translate(-30)" fill="#27b58e"/>
    </g>
  </g>
  <g id="Group_15" data-name="Group 15" transform="translate(0 21.235)">
    <g id="Group_14" data-name="Group 14">
      <path id="Path_20" data-name="Path 20" d="M41.067,251.248l-5.287.328a1.321,1.321,0,0,0-1.238,1.4,1.337,1.337,0,0,0,1.4,1.238l2.678-.167A19.893,19.893,0,0,1,2.643,242.322a1.322,1.322,0,1,0-2.643,0,22.645,22.645,0,0,0,22.557,22.557,22.718,22.718,0,0,0,17.27-8.153v1.456a1.322,1.322,0,0,0,2.643,0v-5.615A1.382,1.382,0,0,0,41.067,251.248Z" transform="translate(0 -241)" fill="#27b58e"/>
    </g>
  </g>
</svg>
