<svg id="recyclable_1_" data-name="recyclable (1)" xmlns="http://www.w3.org/2000/svg" width="44.984" height="42.805" viewBox="0 0 44.984 42.805">
  <path id="Path_15" data-name="Path 15" d="M246.823,241.01H257c-.079-.32-.549-1.074-4-7.1a1.318,1.318,0,0,0-1.79-.495l-5.453,3.06a1.318,1.318,0,0,0-.5,1.8Zm-5.557,2.639v-1.782a1.32,1.32,0,0,0-2.259-.924l-6.19,6.284a1.317,1.317,0,0,0,.012,1.861l6.189,6.128a1.32,1.32,0,0,0,2.247-.937V252.49l9.661-.011a1.319,1.319,0,0,0,1.185-.743c2.034-4.194,3.234-6.644,3.939-8.1-14.985.017-14.785.013-14.785.013Zm0,0" transform="translate(-212.017 -212.793)" fill="#27b58e"/>
  <path id="Path_16" data-name="Path 16" d="M12.667,178.609l1.583.888a1.32,1.32,0,0,0,1.91-1.521l-2.476-8.428a1.319,1.319,0,0,0-1.615-.9l-8.435,2.316a1.319,1.319,0,0,0-.3,2.421l1.572.88L.173,182.579a1.317,1.317,0,0,0,.067,1.41l5.166,7.344c.639-1.123,6.62-11.6,7.261-12.724Zm4.1,7.39a1.318,1.318,0,0,0-1.32-1.316l-3.219,0-5,8.779c.281.1-.071.067,8.228.06a1.318,1.318,0,0,0,1.318-1.32Zm0,0" transform="translate(-0.001 -153.831)" fill="#27b58e"/>
  <path id="Path_17" data-name="Path 17" d="M159.308,8.5l-1.578.909-4.87-8.263A1.321,1.321,0,0,0,151.723.5h-9.559l7.864,13.351-1.553.9a1.319,1.319,0,0,0,.341,2.421l8.6,2.136a1.318,1.318,0,0,0,1.592-.939l2.235-8.381A1.319,1.319,0,0,0,159.308,8.5Zm-23.678.2a1.318,1.318,0,0,0,.476,1.81l5.415,3.127a1.32,1.32,0,0,0,1.8-.473l1.628-2.764-5.161-8.753Zm0,0" transform="translate(-123.547 -0.5)" fill="#27b58e"/>
</svg>
