<svg xmlns="http://www.w3.org/2000/svg" id="Group_8" width="20.113" height="17.376" data-name="Group 8" viewBox="0 0 20.113 17.376"><path id="Path_7" fill="#27b58e" d="M275.637,39.364s0,0,0-.007a4.8,4.8,0,1,0-3.237,4.526c-1.077,6.18-5.9,10.165-1.429,6.885C275.924,47.132,275.642,39.5,275.637,39.364Z" data-name="Path 7" transform="translate(-255.528 -34.57)"/><path id="Path_8" fill="#27b58e" d="M4.788,44.146a4.77,4.77,0,0,0,1.551-.262c-1.077,6.18-5.9,10.165-1.429,6.885,4.953-3.637,4.672-11.265,4.666-11.4,0,0,0,0,0-.007a4.788,4.788,0,1,0-4.788,4.788Z" data-name="Path 8" transform="translate(0 -34.57)"/></svg>