<svg xmlns="http://www.w3.org/2000/svg" id="tree" width="45.087" height="44.991" viewBox="0 0 45.087 44.991"><g id="Group_17" data-name="Group 17" transform="translate(12.875 12.9)"><g id="Group_16" data-name="Group 16"><path id="Path_21" fill="#27b58e" d="M137.377,132.331a.536.536,0,0,0,.7-.674c-.965-2.974-4.459-4.083-7.707-1.445A13.842,13.842,0,0,1,128,131.9c1.126,1.126,2.413,4.9,5.221,5.323,3.093.561,5.831-2.483,3.591-3.875a9.564,9.564,0,0,0-5.067-1.448A9.591,9.591,0,0,1,137.377,132.331Z" data-name="Path 21" transform="translate(-128.003 -128.724)"/></g></g><g id="Group_19" data-name="Group 19" transform="translate(21.663)"><g id="Group_18" data-name="Group 18"><path id="Path_22" fill="#27b58e" d="M229.973,14.86c-5.607-4.554-9.182,2.628-6.96,1.916a9.558,9.558,0,0,1,5.035-.226,9.645,9.645,0,0,0-7.439,3.532,61.663,61.663,0,0,1,.632-7.191,5.982,5.982,0,0,0,4.591-3.378c1.89-3.383,1.014-6.852.732-9.041-1.477,1.438-7.93-.247-10.488,4.136a5.642,5.642,0,0,0,.387,6.017.723.723,0,0,0,1.3-.378,6.786,6.786,0,0,1,4.219-6.265,13.007,13.007,0,0,0-2.394,5.094c-.633,2.8-1.293,4.64-1.536,13.571a1.6,1.6,0,0,0,1.615,1.644,1.625,1.625,0,0,0,1.47-1.03,7.284,7.284,0,0,1,2.024-2.747,4.291,4.291,0,0,0,3.955,1.359c2.8-.416,4.1-4.2,5.221-5.323A13.788,13.788,0,0,1,229.973,14.86Z" data-name="Path 22" transform="translate(-215.38 -0.472)"/></g></g><g id="Group_21" data-name="Group 21" transform="translate(0 24.072)"><g id="Group_20" data-name="Group 20"><path id="Path_23" fill="#27b58e" d="M44.5,241.248a4.243,4.243,0,0,0-4.536.164l-10.994,8.046H22.53l-1.609-1.609h5.912c1.778,0,3.769-1.158,3.769-3.219,0-2.188-1.991-3.219-3.769-3.219H24.617c-1.646,0-3.569.147-4.925-.579a9.585,9.585,0,0,0-4.356-1.029,9.3,9.3,0,0,0-6.67,2.732L0,251.068l9.656,9.656,3.219-4.828H28.084a6.626,6.626,0,0,0,4.4-1.672l12.123-10.77A1.409,1.409,0,0,0,44.5,241.248Z" data-name="Path 23" transform="translate(0 -239.804)"/></g></g></svg>